<?xml version="1.0" standalone="no"?>
<!DOCTYPE svg PUBLIC "-//W3C//DTD SVG 20010904//EN"
 "http://www.w3.org/TR/2001/REC-SVG-20010904/DTD/svg10.dtd">
<svg version="1.0" xmlns="http://www.w3.org/2000/svg"
 width="1080.000000pt" height="691.000000pt" viewBox="0 0 1080.000000 691.000000"
 preserveAspectRatio="xMidYMid meet">

<g transform="translate(0.000000,691.000000) scale(0.100000,-0.100000)"
fill="#000000" stroke="none">
<path d="M3225 3856 c-96 -30 -163 -88 -204 -176 -20 -44 -26 -74 -29 -156 -5
-125 10 -200 52 -261 26 -39 48 -56 117 -90 69 -34 109 -46 229 -68 185 -32
220 -46 269 -101 99 -113 73 -318 -52 -401 -66 -44 -116 -56 -223 -51 -99 4
-164 28 -235 87 -54 45 -115 176 -127 274 -11 80 -16 96 -30 83 -9 -10 -16
-366 -8 -412 8 -40 21 -44 30 -10 11 45 34 43 216 -28 45 -17 77 -21 180 -21
118 0 128 2 184 29 148 73 213 204 204 412 -5 118 -24 168 -89 234 -53 55
-143 88 -325 120 -160 28 -218 48 -264 88 -49 41 -64 91 -58 188 6 86 38 150
100 194 56 41 109 53 201 47 178 -12 300 -134 329 -328 8 -56 14 -69 27 -67
18 4 17 -8 13 254 -1 103 -5 145 -13 142 -7 -2 -17 -19 -23 -38 -16 -50 -49
-51 -127 -5 -121 70 -244 93 -344 61z"/>
<path d="M4208 3860 c-58 -15 -134 -67 -171 -118 -57 -79 -70 -119 -75 -217
-7 -161 46 -283 148 -339 65 -35 84 -41 263 -76 170 -33 223 -55 272 -112 88
-104 63 -306 -48 -388 -65 -48 -126 -63 -231 -58 -77 3 -101 9 -157 36 -119
57 -190 167 -212 326 -21 155 -32 102 -29 -139 3 -207 10 -264 26 -200 9 36
47 33 189 -16 116 -40 123 -41 226 -37 91 3 114 7 162 31 75 37 136 99 173
177 26 56 30 78 34 175 6 143 -11 207 -70 272 -66 70 -130 97 -353 143 -188
40 -209 47 -245 76 -46 39 -63 84 -63 172 0 88 22 146 73 200 53 55 85 67 180
67 122 -1 179 -23 259 -104 71 -71 94 -116 113 -214 8 -41 18 -67 25 -67 10 0
13 30 14 118 2 115 2 131 0 225 -1 57 -24 64 -41 12 -14 -44 -41 -52 -83 -26
-17 12 -61 35 -97 53 -57 28 -77 33 -155 35 -49 1 -107 -2 -127 -7z"/>
<path d="M9556 3275 c-110 -327 -207 -613 -217 -635 -24 -53 -46 -60 -185 -60
l-114 0 -26 43 c-13 23 -47 83 -75 132 -85 151 -142 253 -234 414 l-87 154 22
39 c45 81 212 335 246 377 43 50 86 71 149 71 33 0 45 4 45 15 0 13 -29 15
-200 15 -171 0 -200 -2 -200 -15 0 -11 13 -15 55 -15 58 0 101 -14 109 -37 8
-19 -14 -58 -132 -243 -55 -85 -105 -155 -112 -155 -15 0 -251 415 -243 428 2
4 35 7 74 7 55 0 69 3 69 15 0 13 -36 15 -265 15 -229 0 -265 -2 -265 -15 0
-12 15 -15 78 -15 l78 0 50 -87 c28 -49 108 -188 178 -310 76 -132 126 -229
122 -238 -3 -8 -30 -52 -59 -98 -231 -352 -286 -434 -303 -449 -34 -30 -92
-48 -154 -48 -47 0 -60 -3 -60 -15 0 -13 31 -15 215 -15 184 0 215 2 215 15 0
12 -14 15 -69 15 -75 0 -106 16 -94 48 8 21 71 121 198 317 54 83 105 162 114
177 9 16 18 28 21 28 4 0 273 -476 309 -547 12 -23 11 -23 -69 -23 -64 0 -80
-3 -80 -15 0 -13 57 -15 450 -15 393 0 450 2 450 15 0 12 -14 15 -69 15 -52 0
-74 4 -92 19 l-23 18 18 64 c10 35 35 114 55 174 l36 110 200 0 200 0 62 -180
c34 -99 62 -185 62 -192 1 -9 -26 -13 -86 -15 -52 -2 -87 -7 -86 -13 2 -6 102
-11 268 -13 231 -2 265 0 265 13 0 12 -15 15 -78 15 l-77 0 -57 168 c-31 92
-93 273 -138 402 -45 129 -97 280 -116 335 -91 268 -132 379 -140 382 -5 2
-99 -265 -208 -592z m223 7 c50 -147 91 -270 91 -275 0 -4 -83 -7 -185 -7
-102 0 -185 3 -185 7 0 17 175 543 180 543 4 0 48 -120 99 -268z"/>
<path d="M540 3826 c0 -13 14 -16 85 -16 l85 0 2 -615 3 -615 -87 0 c-72 0
-88 -3 -88 -15 0 -23 654 -22 744 1 174 45 270 162 269 329 0 98 -23 154 -90
215 -55 52 -128 85 -228 103 -42 8 -78 17 -81 19 -2 3 27 10 66 17 202 33 300
129 300 294 0 125 -76 213 -232 269 -60 21 -81 23 -405 26 -308 3 -343 2 -343
-12z m622 -48 c69 -32 112 -69 146 -127 24 -40 27 -56 27 -132 0 -75 -4 -92
-30 -144 -26 -52 -38 -63 -89 -89 -54 -28 -68 -31 -187 -34 l-129 -4 0 282 0
283 104 -5 c82 -5 116 -11 158 -30z m-60 -569 c117 -25 201 -93 233 -189 14
-41 16 -74 13 -144 -6 -118 -39 -192 -107 -241 -57 -42 -114 -55 -241 -55
l-100 0 0 320 0 320 75 0 c40 0 98 -5 127 -11z"/>
<path d="M1620 3825 c0 -11 18 -15 85 -17 l86 -3 0 -430 c-1 -505 6 -603 44
-681 58 -119 196 -174 434 -174 233 0 361 64 435 219 l31 66 5 475 c3 261 9
482 13 491 12 25 53 39 112 39 42 0 55 4 55 15 0 13 -30 15 -210 15 -180 0
-210 -2 -210 -15 0 -12 14 -15 64 -15 77 0 119 -14 135 -43 9 -17 11 -144 9
-497 l-3 -475 -25 -50 c-34 -70 -108 -139 -177 -166 -49 -19 -78 -23 -188 -23
-123 -1 -133 1 -181 26 -29 15 -68 46 -87 69 -67 78 -67 75 -67 646 l0 513 95
0 c78 0 95 3 95 15 0 13 -37 15 -275 15 -235 0 -275 -2 -275 -15z"/>
<path d="M4887 3820 c5 -18 14 -20 84 -20 l79 0 0 -482 c0 -266 3 -540 7 -610
l6 -128 -90 0 c-73 0 -90 -3 -90 -15 0 -13 37 -15 267 -15 230 0 267 2 267 15
0 12 -17 15 -89 15 l-88 0 0 615 0 615 85 0 c69 0 85 3 85 15 0 13 -36 15
-264 15 -259 0 -264 0 -259 -20z"/>
<path d="M5437 3833 c-18 -18 0 -23 83 -23 l91 0 -3 -590 c-3 -587 -3 -590
-24 -611 -16 -16 -38 -22 -88 -26 -46 -4 -66 -10 -66 -19 0 -13 62 -16 355
-16 41 0 45 1 45 16 0 9 -20 15 -71 18 -124 9 -113 -45 -119 604 -3 306 -2
558 1 559 3 2 37 -39 75 -92 38 -52 96 -132 129 -177 33 -46 102 -141 153
-212 164 -229 245 -340 333 -456 47 -62 109 -146 138 -185 30 -40 58 -73 62
-73 9 0 14 335 14 912 0 360 -6 340 105 346 51 3 70 8 70 18 0 11 -35 14 -190
14 -162 0 -190 -2 -190 -15 0 -12 13 -15 55 -15 66 0 111 -20 118 -52 4 -19 2
-855 -2 -867 -2 -5 -86 111 -101 139 -13 25 -149 212 -160 220 -7 5 -134 177
-320 432 l-115 158 -186 0 c-102 0 -189 -3 -192 -7z"/>
<path d="M6730 3825 c0 -11 18 -15 78 -17 l77 -3 3 -612 2 -613 -80 0 c-64 0
-80 -3 -80 -15 0 -13 66 -15 535 -15 l535 0 0 185 c0 149 -3 185 -14 185 -9 0
-15 -20 -20 -67 -12 -134 -40 -185 -126 -228 -69 -35 -150 -45 -367 -45 l-193
0 0 300 0 300 110 0 c171 0 213 -26 233 -146 6 -35 15 -64 19 -64 4 0 8 108 8
240 0 132 -4 240 -8 240 -4 0 -13 -30 -19 -67 -19 -106 -60 -148 -164 -164
-37 -6 -91 -9 -120 -7 l-54 3 -2 291 -2 292 167 7 c139 6 179 4 240 -10 123
-28 193 -100 209 -216 5 -30 13 -53 18 -51 12 3 12 2 1 175 l-8 137 -489 0
c-422 0 -489 -2 -489 -15z"/>
<path d="M690 1877 c-107 -57 -107 -207 0 -264 53 -28 101 -29 159 -2 41 18
43 21 29 36 -15 14 -18 14 -39 -1 -13 -9 -41 -16 -62 -16 -97 0 -155 87 -112
169 27 54 125 79 174 45 21 -15 24 -15 39 -1 14 15 12 18 -29 36 -58 27 -106
26 -159 -2z"/>
<path d="M1136 1890 c-93 -29 -135 -152 -79 -228 38 -51 70 -67 136 -67 103 0
167 58 167 150 0 107 -113 180 -224 145z m123 -45 c30 -15 61 -69 61 -105 0
-34 -37 -86 -70 -100 -47 -19 -108 -7 -144 29 -26 26 -31 39 -31 77 0 40 5 50
37 80 30 27 46 34 78 34 23 0 54 -7 69 -15z"/>
<path d="M1530 1745 l0 -155 25 0 c24 0 24 0 27 111 l3 110 89 -108 c81 -99
120 -134 129 -115 1 4 1 76 -1 160 -4 141 -5 152 -23 152 -17 0 -19 -10 -21
-116 l-3 -115 -93 115 c-129 160 -132 159 -132 -39z"/>
<path d="M1999 1871 c-59 -60 -30 -116 76 -146 69 -19 85 -30 85 -56 0 -38
-72 -51 -137 -24 -48 20 -55 19 -51 -7 10 -68 202 -62 228 7 12 32 4 68 -18
88 -10 9 -44 22 -76 31 -71 18 -96 38 -80 64 18 29 59 37 111 24 46 -13 62 -7
63 21 0 14 -51 27 -111 27 -54 0 -64 -3 -90 -29z"/>
<path d="M2372 1779 l3 -121 32 -28 c39 -35 92 -46 144 -31 61 18 73 46 79
183 5 117 5 118 -17 118 -22 0 -23 -3 -23 -110 0 -104 -1 -112 -25 -135 -34
-35 -93 -34 -126 1 -21 23 -24 36 -27 135 -4 101 -6 109 -24 109 -19 0 -20 -6
-16 -121z"/>
<path d="M2830 1745 l0 -155 105 0 c98 0 105 1 105 20 0 18 -7 20 -85 20 l-85
0 0 135 c0 128 -1 135 -20 135 -19 0 -20 -7 -20 -155z"/>
<path d="M3150 1880 c0 -18 7 -20 55 -20 l55 0 0 -135 c0 -128 1 -135 20 -135
19 0 20 7 20 134 l0 135 52 3 c41 2 54 7 56 21 3 15 -8 17 -127 17 -124 0
-131 -1 -131 -20z"/>
<path d="M3636 1890 c-16 -5 -40 -19 -53 -32 -77 -72 -68 -176 21 -242 40 -30
138 -29 187 2 94 58 89 211 -8 257 -44 21 -107 28 -147 15z m122 -44 c33 -18
62 -66 62 -101 0 -35 -29 -83 -62 -101 -51 -29 -129 -12 -165 36 -36 47 -14
137 40 164 39 19 94 20 125 2z"/>
<path d="M4030 1745 c0 -147 1 -155 19 -155 16 0 20 8 23 43 l3 42 50 3 c50 3
52 2 84 -43 19 -27 40 -45 52 -45 25 0 24 2 -12 53 l-31 44 31 31 c24 23 31
39 31 69 0 78 -53 113 -175 113 l-75 0 0 -155z m187 93 c32 -30 30 -71 -4 -98
-21 -17 -38 -20 -82 -18 l-56 3 -3 54 c-4 77 -2 81 65 81 44 0 62 -5 80 -22z"/>
<path d="M4460 1745 l0 -155 110 0 c103 0 110 1 110 20 0 19 -7 20 -90 20
l-90 0 0 50 0 50 81 0 c71 0 80 2 77 18 -3 14 -16 17 -81 20 l-77 3 0 44 0 44
87 3 c74 3 88 6 91 21 3 15 -7 17 -107 17 l-111 0 0 -155z"/>
<path d="M4903 1892 c-42 -13 -63 -39 -63 -81 0 -46 22 -65 96 -81 65 -15 84
-27 84 -55 0 -44 -75 -60 -146 -30 -31 13 -36 13 -41 -1 -7 -19 8 -30 57 -44
111 -32 204 26 167 104 -11 25 -27 34 -93 56 -71 22 -79 28 -82 52 -2 19 3 30
19 38 19 11 86 10 128 -1 8 -2 16 4 19 13 6 28 -86 47 -145 30z"/>
<path d="M5450 1745 l0 -157 98 4 c110 5 152 21 182 71 25 40 26 110 2 157
-28 55 -71 74 -184 78 l-98 4 0 -157z m199 101 c57 -30 77 -96 46 -156 -21
-41 -63 -60 -135 -60 l-60 0 0 115 0 115 60 0 c34 0 74 -7 89 -14z"/>
<path d="M5920 1745 l0 -155 115 0 c108 0 115 1 115 20 0 19 -7 20 -90 20
l-90 0 0 50 0 50 75 0 c68 0 75 2 75 20 0 18 -7 20 -75 20 l-75 0 0 45 0 45
85 0 c78 0 85 2 85 20 0 19 -7 20 -110 20 l-110 0 0 -155z"/>
<path d="M6540 1745 l0 -155 26 0 25 0 -3 110 c-2 61 0 110 4 110 5 0 90 -100
174 -206 6 -8 19 -14 28 -14 14 0 16 18 16 155 0 148 -1 155 -20 155 -19 0
-20 -7 -20 -111 0 -61 -4 -109 -9 -107 -5 2 -48 51 -96 111 -122 150 -125 149
-125 -48z"/>
<path d="M7010 1745 l0 -155 110 0 c103 0 110 1 110 20 0 19 -7 20 -90 20
l-90 0 0 50 0 50 81 0 c71 0 80 2 77 18 -3 14 -16 17 -81 20 l-77 3 0 44 0 44
87 3 c73 3 87 6 89 21 2 15 -9 17 -107 17 l-109 0 0 -155z"/>
<path d="M7500 1893 c-14 -3 -40 -16 -58 -29 -148 -113 -5 -328 173 -260 l45
18 0 65 c0 56 -2 64 -17 61 -14 -2 -19 -15 -21 -55 -3 -51 -4 -52 -38 -59 -52
-10 -97 3 -130 37 -65 68 -21 175 78 186 31 4 55 0 77 -12 34 -17 61 -9 46 15
-19 30 -89 45 -155 33z"/>
<path d="M7925 1885 c-22 -8 -41 -15 -42 -15 -1 0 -14 -17 -28 -37 -48 -72
-26 -181 44 -217 80 -42 178 -24 228 40 20 27 26 47 27 87 0 65 -28 111 -88
138 -49 22 -87 23 -141 4z m125 -40 c66 -34 82 -120 32 -176 -53 -59 -161 -48
-197 21 -21 41 -19 87 6 122 35 48 102 62 159 33z"/>
<path d="M8394 1881 c-140 -64 -112 -258 42 -287 69 -13 166 27 137 57 -10 10
-19 9 -46 -6 -117 -62 -236 79 -149 176 35 39 102 50 151 24 22 -11 37 -13 43
-7 15 15 1 32 -38 48 -45 19 -91 17 -140 -5z"/>
<path d="M8750 1745 c0 -148 1 -155 20 -155 19 0 20 7 20 155 0 148 -1 155
-20 155 -19 0 -20 -7 -20 -155z"/>
<path d="M9054 1882 c-59 -28 -88 -74 -88 -138 0 -41 5 -59 27 -87 50 -65 148
-83 228 -41 93 48 91 211 -3 260 -48 25 -117 27 -164 6z m168 -63 c71 -84 2
-199 -111 -186 -61 7 -101 50 -101 108 0 79 51 123 135 116 41 -4 54 -10 77
-38z"/>
<path d="M9490 1882 c-24 -11 -37 -27 -44 -49 -13 -49 11 -79 82 -98 91 -25
102 -32 102 -59 0 -15 -8 -30 -19 -36 -29 -15 -98 -12 -132 5 -27 14 -30 14
-36 -1 -7 -19 8 -30 62 -45 90 -25 169 14 163 80 -4 42 -45 75 -108 85 -22 3
-50 16 -61 27 -18 18 -19 23 -6 42 12 18 24 22 68 22 30 -1 61 -4 70 -9 11 -5
18 -2 23 9 4 12 -4 20 -29 31 -46 19 -92 18 -135 -4z"/>
</g>
</svg>
